<?xml version="1.0" encoding="UTF-8"?>
<!DOCTYPE svg PUBLIC "-//W3C//DTD SVG 1.1//EN" "http://www.w3.org/Graphics/SVG/1.1/DTD/svg11.dtd">
<svg xmlns="http://www.w3.org/2000/svg" version="1.1" width="512px" height="512px" style="shape-rendering:geometricPrecision; text-rendering:geometricPrecision; image-rendering:optimizeQuality; fill-rule:evenodd; clip-rule:evenodd" xmlns:xlink="http://www.w3.org/1999/xlink">
<g><path style="opacity:0.968" fill="#8cf39b" d="M 107.5,-0.5 C 116.167,-0.5 124.833,-0.5 133.5,-0.5C 141.529,1.09156 149.195,3.75822 156.5,7.5C 132.994,7.83088 109.661,7.49754 86.5,6.5C 93.1846,3.1607 100.185,0.82737 107.5,-0.5 Z"/></g>
<g><path style="opacity:0.98" fill="#8cf39b" d="M 271.5,-0.5 C 278.833,-0.5 286.167,-0.5 293.5,-0.5C 306.47,1.27436 319.47,3.60769 332.5,6.5C 312.34,7.49717 292.007,7.8305 271.5,7.5C 271.5,4.83333 271.5,2.16667 271.5,-0.5 Z"/></g>
<g><path style="opacity:0.989" fill="#8af09f" d="M 86.5,6.5 C 109.661,7.49754 132.994,7.83088 156.5,7.5C 168.805,12.9969 178.805,21.3302 186.5,32.5C 140.833,33.8333 95.1667,33.8333 49.5,32.5C 59.6418,20.688 71.9751,12.0213 86.5,6.5 Z"/></g>
<g><path style="opacity:0.991" fill="#8af09f" d="M 332.5,6.5 C 354.327,12.4137 374.993,21.0804 394.5,32.5C 353.67,33.4986 312.67,33.832 271.5,33.5C 271.5,24.8333 271.5,16.1667 271.5,7.5C 292.007,7.8305 312.34,7.49717 332.5,6.5 Z"/></g>
<g><path style="opacity:0.984" fill="#89eda1" d="M 394.5,32.5 C 399.045,35.266 403.378,38.266 407.5,41.5C 369.706,40.1764 332.039,40.1764 294.5,41.5C 287.2,40.7734 279.867,40.2734 272.5,40C 271.577,37.9592 271.244,35.7925 271.5,33.5C 312.67,33.832 353.67,33.4986 394.5,32.5 Z"/></g>
<g><path style="opacity:0.994" fill="#89eda2" d="M 49.5,32.5 C 95.1667,33.8333 140.833,33.8333 186.5,32.5C 188.664,34.822 190.331,37.4887 191.5,40.5C 171.66,40.1696 151.993,40.5029 132.5,41.5C 124.601,39.3014 116.601,39.3014 108.5,41.5C 86.8333,40.8333 65.1667,40.1667 43.5,39.5C 44.7997,36.5677 46.7997,34.2344 49.5,32.5 Z"/></g>
<g><path style="opacity:0.987" fill="#87eaa5" d="M 43.5,39.5 C 65.1667,40.1667 86.8333,40.8333 108.5,41.5C 91.8667,48.1427 78.5334,58.8093 68.5,73.5C 53.1667,72.8333 37.8333,72.1667 22.5,71.5C 27.514,59.456 34.514,48.7893 43.5,39.5 Z"/></g>
<g><path style="opacity:0.985" fill="#87eaa5" d="M 191.5,40.5 C 197.925,50.3443 203.592,60.6777 208.5,71.5C 193.342,72.4962 178.009,72.8295 162.5,72.5C 158.223,62.4355 151.889,53.9355 143.5,47C 139.741,45.1207 136.075,43.2874 132.5,41.5C 151.993,40.5029 171.66,40.1696 191.5,40.5 Z"/></g>
<g><path style="opacity:0.985" fill="#87eaa5" d="M 294.5,41.5 C 332.039,40.1764 369.706,40.1764 407.5,41.5C 421.168,50.1778 433.502,60.5111 444.5,72.5C 423.167,72.5 401.833,72.5 380.5,72.5C 354.348,55.4471 325.681,45.1138 294.5,41.5 Z"/></g>
<g><path style="opacity:0.986" fill="#84e5aa" d="M 208.5,71.5 C 212.32,77.2797 214.987,83.6131 216.5,90.5C 202.265,91.1824 187.932,91.8491 173.5,92.5C 169.833,85.8333 166.167,79.1667 162.5,72.5C 178.009,72.8295 193.342,72.4962 208.5,71.5 Z"/></g>
<g><path style="opacity:0.986" fill="#84e6aa" d="M 380.5,72.5 C 401.833,72.5 423.167,72.5 444.5,72.5C 450.578,78.2418 455.912,84.5752 460.5,91.5C 442.326,91.1699 424.326,91.5032 406.5,92.5C 398.094,85.4195 389.428,78.7528 380.5,72.5 Z"/></g>
<g><path style="opacity:0.988" fill="#84e5aa" d="M 22.5,71.5 C 37.8333,72.1667 53.1667,72.8333 68.5,73.5C 64.819,79.5359 61.1523,85.5359 57.5,91.5C 42.8333,91.5 28.1667,91.5 13.5,91.5C 15.4408,84.2904 18.4408,77.6238 22.5,71.5 Z"/></g>
<g><path style="opacity:0.988" fill="#82e2ad" d="M 216.5,90.5 C 218.924,96.524 220.591,102.857 221.5,109.5C 220.596,110.209 220.263,111.209 220.5,112.5C 207.167,112.5 193.833,112.5 180.5,112.5C 178.728,105.626 176.395,98.9592 173.5,92.5C 187.932,91.8491 202.265,91.1824 216.5,90.5 Z"/></g>
<g><path style="opacity:0.993" fill="#82e3ad" d="M 370.5,113.5 C 337.543,112.514 304.543,112.181 271.5,112.5C 271.5,101.5 271.5,90.5 271.5,79.5C 308.644,79.324 341.644,90.6573 370.5,113.5 Z"/></g>
<g><path style="opacity:0.987" fill="#82e2ad" d="M 13.5,91.5 C 28.1667,91.5 42.8333,91.5 57.5,91.5C 54.283,99.1633 51.283,106.83 48.5,114.5C 35.0305,112.839 21.3639,111.839 7.5,111.5C 8.58768,104.465 10.5877,97.7987 13.5,91.5 Z"/></g>
<g><path style="opacity:0.989" fill="#82e2ad" d="M 460.5,91.5 C 466.224,97.934 471.224,104.934 475.5,112.5C 458.991,112.17 442.658,112.504 426.5,113.5C 419.861,106.526 413.194,99.5264 406.5,92.5C 424.326,91.5032 442.326,91.1699 460.5,91.5 Z"/></g>
<g><path style="opacity:0.985" fill="#7fddb2" d="M 221.5,109.5 C 222.682,121.332 221.016,132.665 216.5,143.5C 198.833,143.5 181.167,143.5 163.5,143.5C 168.13,138.369 172.963,133.369 178,128.5C 180.259,123.439 181.092,118.105 180.5,112.5C 193.833,112.5 207.167,112.5 220.5,112.5C 220.263,111.209 220.596,110.209 221.5,109.5 Z"/></g>
<g><path style="opacity:0.982" fill="#7fddb2" d="M 7.5,111.5 C 21.3639,111.839 35.0305,112.839 48.5,114.5C 46.2444,124.111 44.2444,133.778 42.5,143.5C 28.8333,143.5 15.1667,143.5 1.5,143.5C 2.3687,132.497 4.3687,121.83 7.5,111.5 Z"/></g>
<g><path style="opacity:0.983" fill="#80deb2" d="M 271.5,112.5 C 304.543,112.181 337.543,112.514 370.5,113.5C 381.833,121.5 391.5,131.167 399.5,142.5C 380.576,143.487 361.576,143.82 342.5,143.5C 321.72,128.406 298.386,120.573 272.5,120C 271.565,117.619 271.232,115.119 271.5,112.5 Z"/></g>
<g><path style="opacity:0.984" fill="#7fdeb2" d="M 475.5,112.5 C 481.848,121.857 487.181,131.857 491.5,142.5C 476.578,143.483 461.578,143.816 446.5,143.5C 440.259,133.251 433.592,123.251 426.5,113.5C 442.658,112.504 458.991,112.17 475.5,112.5 Z"/></g>
<g><path style="opacity:0.98" fill="#7dd9b7" d="M 1.5,143.5 C 15.1667,143.5 28.8333,143.5 42.5,143.5C 42.1532,148.68 41.4865,153.68 40.5,158.5C 27.1667,158.5 13.8333,158.5 0.5,158.5C 0.737305,159.791 0.403972,160.791 -0.5,161.5C -0.5,159.833 -0.5,158.167 -0.5,156.5C 0.282687,152.307 0.949353,147.973 1.5,143.5 Z"/></g>
<g><path style="opacity:0.99" fill="#7dd9b7" d="M 163.5,143.5 C 181.167,143.5 198.833,143.5 216.5,143.5C 213.96,149.366 210.293,154.366 205.5,158.5C 186.833,158.5 168.167,158.5 149.5,158.5C 154.195,153.474 158.861,148.474 163.5,143.5 Z"/></g>
<g><path style="opacity:0.991" fill="#7ddab6" d="M 399.5,142.5 C 403.345,147.525 406.678,152.858 409.5,158.5C 392.833,158.5 376.167,158.5 359.5,158.5C 354.105,153.099 348.438,148.099 342.5,143.5C 361.576,143.82 380.576,143.487 399.5,142.5 Z"/></g>
<g><path style="opacity:0.988" fill="#7dd9b6" d="M 491.5,142.5 C 493.89,147.336 495.89,152.336 497.5,157.5C 483.01,158.496 468.343,158.829 453.5,158.5C 451.44,153.38 449.107,148.38 446.5,143.5C 461.578,143.816 476.578,143.483 491.5,142.5 Z"/></g>
<g><path style="opacity:0.986" fill="#7bd6ba" d="M 40.5,158.5 C 40.5,166.5 40.5,174.5 40.5,182.5C 26.8333,182.5 13.1667,182.5 -0.5,182.5C -0.5,175.5 -0.5,168.5 -0.5,161.5C 0.403972,160.791 0.737305,159.791 0.5,158.5C 13.8333,158.5 27.1667,158.5 40.5,158.5 Z"/></g>
<g><path style="opacity:0.987" fill="#7bd6ba" d="M 149.5,158.5 C 168.167,158.5 186.833,158.5 205.5,158.5C 198.201,167.467 190.201,175.8 181.5,183.5C 163.243,182.514 144.91,182.18 126.5,182.5C 133.465,173.867 141.132,165.867 149.5,158.5 Z"/></g>
<g><path style="opacity:0.987" fill="#7bd6ba" d="M 359.5,158.5 C 376.167,158.5 392.833,158.5 409.5,158.5C 414.264,165.691 418.264,173.358 421.5,181.5C 406.735,182.151 392.069,182.818 377.5,183.5C 372.247,174.675 366.247,166.342 359.5,158.5 Z"/></g>
<g><path style="opacity:0.988" fill="#7bd6ba" d="M 497.5,157.5 C 500.542,165.63 503.209,173.963 505.5,182.5C 491.167,182.5 476.833,182.5 462.5,182.5C 460.053,174.276 457.053,166.276 453.5,158.5C 468.343,158.829 483.01,158.496 497.5,157.5 Z"/></g>
<g><path style="opacity:0.977" fill="#7bd6ba" d="M 327.5,181.5 C 309.007,182.497 290.341,182.83 271.5,182.5C 271.5,174.833 271.5,167.167 271.5,159.5C 293.26,159.193 311.926,166.527 327.5,181.5 Z"/></g>
<g><path style="opacity:0.985" fill="#78d2bf" d="M 421.5,181.5 C 424.856,190.235 427.19,199.235 428.5,208.5C 414.765,208.87 401.098,209.87 387.5,211.5C 385.155,201.798 381.822,192.465 377.5,183.5C 392.069,182.818 406.735,182.151 421.5,181.5 Z"/></g>
<g><path style="opacity:0.988" fill="#78d2be" d="M -0.5,182.5 C 13.1667,182.5 26.8333,182.5 40.5,182.5C 40.2895,191.2 40.6228,199.867 41.5,208.5C 27.9123,209.481 14.2456,209.815 0.5,209.5C 0.67158,208.508 0.338246,207.842 -0.5,207.5C -0.5,199.167 -0.5,190.833 -0.5,182.5 Z"/></g>
<g><path style="opacity:0.985" fill="#78d2be" d="M 126.5,182.5 C 144.91,182.18 163.243,182.514 181.5,183.5C 174.535,191.8 167.202,199.8 159.5,207.5C 145.873,209.482 131.873,210.149 117.5,209.5C 115.559,204.731 114.392,199.731 114,194.5C 118.036,190.296 122.202,186.296 126.5,182.5 Z"/></g>
<g><path style="opacity:0.989" fill="#78d2bf" d="M 327.5,181.5 C 335.799,189.411 342.133,198.744 346.5,209.5C 330.422,209.183 314.422,209.516 298.5,210.5C 290.87,203.622 281.87,200.288 271.5,200.5C 271.5,194.5 271.5,188.5 271.5,182.5C 290.341,182.83 309.007,182.497 327.5,181.5 Z"/></g>
<g><path style="opacity:0.985" fill="#78d2bf" d="M 462.5,182.5 C 476.833,182.5 491.167,182.5 505.5,182.5C 507.479,191.064 508.813,199.731 509.5,208.5C 496.01,209.496 482.344,209.829 468.5,209.5C 467.264,200.321 465.264,191.321 462.5,182.5 Z"/></g>
<g><path style="opacity:0.988" fill="#76cfc2" d="M 346.5,209.5 C 347.167,211.833 347.833,214.167 348.5,216.5C 333.605,217.483 318.938,217.817 304.5,217.5C 302.529,215.192 300.529,212.858 298.5,210.5C 314.422,209.516 330.422,209.183 346.5,209.5 Z"/></g>
<g><path style="opacity:0.984" fill="#75ccc5" d="M 348.5,216.5 C 350.971,223.931 351.971,231.597 351.5,239.5C 337.833,239.5 324.167,239.5 310.5,239.5C 310.68,231.55 308.68,224.216 304.5,217.5C 318.938,217.817 333.605,217.483 348.5,216.5 Z"/></g>
<g><path style="opacity:0.988" fill="#75ccc4" d="M 41.5,208.5 C 42.9886,218.943 44.9886,229.276 47.5,239.5C 34.2076,241.482 20.5409,242.149 6.5,241.5C 3.22438,231.194 1.22438,220.528 0.5,209.5C 14.2456,209.815 27.9123,209.481 41.5,208.5 Z"/></g>
<g><path style="opacity:0.989" fill="#75cdc4" d="M 159.5,207.5 C 164.462,218.765 169.462,230.098 174.5,241.5C 159.5,241.5 144.5,241.5 129.5,241.5C 124.424,231.329 120.424,220.662 117.5,209.5C 131.873,210.149 145.873,209.482 159.5,207.5 Z"/></g>
<g><path style="opacity:0.987" fill="#75cdc4" d="M 428.5,208.5 C 431.008,218.541 432.008,228.874 431.5,239.5C 417.833,239.5 404.167,239.5 390.5,239.5C 390.912,229.995 389.912,220.662 387.5,211.5C 401.098,209.87 414.765,208.87 428.5,208.5 Z"/></g>
<g><path style="opacity:0.99" fill="#75cdc4" d="M 509.5,208.5 C 510.167,211.5 510.833,214.5 511.5,217.5C 511.5,224.833 511.5,232.167 511.5,239.5C 497.833,239.5 484.167,239.5 470.5,239.5C 470.829,229.407 470.162,219.407 468.5,209.5C 482.344,209.829 496.01,209.496 509.5,208.5 Z"/></g>
<g><path style="opacity:0.986" fill="#73c8c9" d="M 47.5,239.5 C 49.8136,245.429 52.1469,251.429 54.5,257.5C 40.2452,258.482 25.9118,258.816 11.5,258.5C 8.85399,253.218 7.18732,247.552 6.5,241.5C 20.5409,242.149 34.2076,241.482 47.5,239.5 Z"/></g>
<g><path style="opacity:0.984" fill="#73c9c9" d="M 129.5,241.5 C 144.5,241.5 159.5,241.5 174.5,241.5C 178.082,246.994 181.415,252.661 184.5,258.5C 168.991,258.17 153.658,258.504 138.5,259.5C 134.992,253.818 131.992,247.818 129.5,241.5 Z"/></g>
<g><path style="opacity:0.988" fill="#71c6cc" d="M 54.5,257.5 C 56.638,263.247 58.9713,268.914 61.5,274.5C 46.6572,274.171 31.9905,274.504 17.5,275.5C 14.7313,270.199 12.7313,264.532 11.5,258.5C 25.9118,258.816 40.2452,258.482 54.5,257.5 Z"/></g>
<g><path style="opacity:0.988" fill="#71c6cc" d="M 184.5,258.5 C 188.154,263.796 191.821,269.129 195.5,274.5C 179.325,274.17 163.325,274.504 147.5,275.5C 143.707,270.684 140.707,265.35 138.5,259.5C 153.658,258.504 168.991,258.17 184.5,258.5 Z"/></g>
<g><path style="opacity:0.987" fill="#6fc3cf" d="M 61.5,274.5 C 64.7511,280.001 67.7511,285.667 70.5,291.5C 55.8706,293.484 40.8706,294.15 25.5,293.5C 22.2866,287.74 19.62,281.74 17.5,275.5C 31.9905,274.504 46.6572,274.171 61.5,274.5 Z"/></g>
<g><path style="opacity:0.99" fill="#6fc3cf" d="M 195.5,274.5 C 200.137,280.142 204.803,285.809 209.5,291.5C 193.2,293.485 176.534,294.152 159.5,293.5C 154.511,288.197 150.511,282.197 147.5,275.5C 163.325,274.504 179.325,274.17 195.5,274.5 Z"/></g>
<g><path style="opacity:0.983" fill="#6dbfd2" d="M 209.5,291.5 C 216.193,297.861 222.86,304.194 229.5,310.5C 211.197,312.487 192.53,313.154 173.5,312.5C 168.037,306.711 163.37,300.377 159.5,293.5C 176.534,294.152 193.2,293.485 209.5,291.5 Z"/></g>
<g><path style="opacity:0.985" fill="#6dbfd2" d="M 70.5,291.5 C 74.9054,298.635 79.5721,305.635 84.5,312.5C 68.3246,312.17 52.3246,312.504 36.5,313.5C 32.3414,307.189 28.6748,300.523 25.5,293.5C 40.8706,294.15 55.8706,293.484 70.5,291.5 Z"/></g>
<g><path style="opacity:0.985" fill="#6dbfd2" d="M 457.5,311.5 C 420.336,312.333 383.002,312.833 345.5,313C 344.956,313.717 344.289,314.217 343.5,314.5C 363.697,288.86 389.364,281.694 420.5,293C 433.418,298.125 445.751,304.292 457.5,311.5 Z"/></g>
<g><path style="opacity:0.983" fill="#6bbcd6" d="M 229.5,310.5 C 237.149,316.658 245.149,322.325 253.5,327.5C 232.006,328.497 210.34,328.831 188.5,328.5C 183.509,323.208 178.509,317.875 173.5,312.5C 192.53,313.154 211.197,312.487 229.5,310.5 Z"/></g>
<g><path style="opacity:0.988" fill="#6bbcd6" d="M 84.5,312.5 C 89.1667,319.167 93.8333,325.833 98.5,332.5C 81.7991,331.848 65.4658,332.515 49.5,334.5C 44.7782,327.77 40.4448,320.77 36.5,313.5C 52.3246,312.504 68.3246,312.17 84.5,312.5 Z"/></g>
<g><path style="opacity:0.994" fill="#6bbcd6" d="M 457.5,311.5 C 466.887,316.185 475.554,321.852 483.5,328.5C 452.995,328.169 422.662,328.502 392.5,329.5C 392.167,329.5 391.833,329.5 391.5,329.5C 371.007,328.503 350.34,328.169 329.5,328.5C 333.833,323.5 338.5,318.833 343.5,314.5C 344.289,314.217 344.956,313.717 345.5,313C 383.002,312.833 420.336,312.333 457.5,311.5 Z"/></g>
<g><path style="opacity:0.992" fill="#69b9d9" d="M 98.5,332.5 C 102.513,336.515 106.179,340.848 109.5,345.5C 92.1667,345.5 74.8333,345.5 57.5,345.5C 54.6007,342.048 51.9341,338.382 49.5,334.5C 65.4658,332.515 81.7991,331.848 98.5,332.5 Z"/></g>
<g><path style="opacity:0.991" fill="#6ab9d9" d="M 253.5,327.5 C 263.878,334.022 274.545,340.022 285.5,345.5C 259.833,345.5 234.167,345.5 208.5,345.5C 201.24,340.577 194.574,334.91 188.5,328.5C 210.34,328.831 232.006,328.497 253.5,327.5 Z"/></g>
<g><path style="opacity:0.991" fill="#69bad9" d="M 329.5,328.5 C 350.34,328.169 371.007,328.503 391.5,329.5C 388.575,329.46 385.909,330.293 383.5,332C 378.631,337.037 373.631,341.87 368.5,346.5C 350.341,345.503 332.008,345.17 313.5,345.5C 318.129,339.203 323.462,333.537 329.5,328.5 Z"/></g>
<g><path style="opacity:0.991" fill="#6abad9" d="M 392.5,329.5 C 422.662,328.502 452.995,328.169 483.5,328.5C 489.587,333.251 494.587,338.918 498.5,345.5C 477.66,345.169 456.993,345.503 436.5,346.5C 425.18,339.676 413.18,334.176 400.5,330C 397.854,329.503 395.187,329.336 392.5,329.5 Z"/></g>
<g><path style="opacity:0.986" fill="#68b6dc" d="M 57.5,345.5 C 74.8333,345.5 92.1667,345.5 109.5,345.5C 114.843,350.844 119.843,356.511 124.5,362.5C 107.008,363.497 89.3412,363.83 71.5,363.5C 66.4821,357.81 61.8154,351.81 57.5,345.5 Z"/></g>
<g><path style="opacity:0.989" fill="#68b7dc" d="M 208.5,345.5 C 234.167,345.5 259.833,345.5 285.5,345.5C 291.892,347.631 298.226,349.965 304.5,352.5C 307.779,350.558 310.779,348.224 313.5,345.5C 332.008,345.17 350.341,345.503 368.5,346.5C 362.472,352.86 356.472,359.193 350.5,365.5C 331.512,364.167 312.178,363.5 292.5,363.5C 272.997,363.5 253.664,363.833 234.5,364.5C 225.249,358.908 216.582,352.575 208.5,345.5 Z"/></g>
<g><path style="opacity:0.98" fill="#68b6dc" d="M 498.5,345.5 C 502.535,350.903 505.535,356.903 507.5,363.5C 492.167,363.5 476.833,363.5 461.5,363.5C 453.965,356.627 445.632,350.96 436.5,346.5C 456.993,345.503 477.66,345.169 498.5,345.5 Z"/></g>
<g><path style="opacity:0.984" fill="#66b4df" d="M 124.5,362.5 C 129.833,367.167 134.833,372.167 139.5,377.5C 121.5,378.167 103.5,378.833 85.5,379.5C 80.3719,374.582 75.7052,369.249 71.5,363.5C 89.3412,363.83 107.008,363.497 124.5,362.5 Z"/></g>
<g><path style="opacity:0.989" fill="#66b4df" d="M 234.5,364.5 C 253.664,363.833 272.997,363.5 292.5,363.5C 312.178,363.5 331.512,364.167 350.5,365.5C 346.5,370.167 342.167,374.5 337.5,378.5C 312.328,378.169 287.328,378.502 262.5,379.5C 252.88,375.024 243.547,370.024 234.5,364.5 Z"/></g>
<g><path style="opacity:0.985" fill="#66b4df" d="M 461.5,363.5 C 476.833,363.5 492.167,363.5 507.5,363.5C 509.165,368.172 510.498,372.839 511.5,377.5C 511.5,377.833 511.5,378.167 511.5,378.5C 497.5,378.5 483.5,378.5 469.5,378.5C 467.612,373.055 464.945,368.055 461.5,363.5 Z"/></g>
<g><path style="opacity:0.984" fill="#64b1e2" d="M 139.5,377.5 C 147.226,385.23 155.226,392.563 163.5,399.5C 144.167,400.167 124.833,400.833 105.5,401.5C 98.4704,394.472 91.8037,387.138 85.5,379.5C 103.5,378.833 121.5,378.167 139.5,377.5 Z"/></g>
<g><path style="opacity:0.971" fill="#65b1e2" d="M 262.5,379.5 C 287.328,378.502 312.328,378.169 337.5,378.5C 331.557,386.111 324.891,393.111 317.5,399.5C 298.406,394.803 280.073,388.137 262.5,379.5 Z"/></g>
<g><path style="opacity:0.986" fill="#64b0e2" d="M 469.5,378.5 C 483.5,378.5 497.5,378.5 511.5,378.5C 511.5,385.833 511.5,393.167 511.5,400.5C 497.459,401.149 483.792,400.482 470.5,398.5C 471.353,391.91 471.02,385.243 469.5,378.5 Z"/></g>
<g><path style="opacity:0.987" fill="#62ade6" d="M 163.5,399.5 C 169.858,404.863 176.192,410.196 182.5,415.5C 162.34,416.497 142.007,416.83 121.5,416.5C 115.744,411.954 110.41,406.954 105.5,401.5C 124.833,400.833 144.167,400.167 163.5,399.5 Z"/></g>
<g><path style="opacity:0.992" fill="#62ade6" d="M 470.5,398.5 C 483.792,400.482 497.459,401.149 511.5,400.5C 511.5,401.5 511.5,402.5 511.5,403.5C 510.323,407.875 508.989,412.208 507.5,416.5C 492.833,416.5 478.167,416.5 463.5,416.5C 466.25,410.571 468.583,404.571 470.5,398.5 Z"/></g>
<g><path style="opacity:0.987" fill="#60aae9" d="M 182.5,415.5 C 193.328,423.081 204.328,430.415 215.5,437.5C 192.294,438.817 168.961,438.817 145.5,437.5C 136.882,431.216 128.882,424.216 121.5,416.5C 142.007,416.83 162.34,416.497 182.5,415.5 Z"/></g>
<g><path style="opacity:0.985" fill="#60aae9" d="M 463.5,416.5 C 478.167,416.5 492.833,416.5 507.5,416.5C 505.231,424.367 501.898,431.701 497.5,438.5C 479.326,438.83 461.326,438.497 443.5,437.5C 450.869,431.132 457.536,424.132 463.5,416.5 Z"/></g>
<g><path style="opacity:0.985" fill="#5fa7ec" d="M 145.5,437.5 C 168.961,438.817 192.294,438.817 215.5,437.5C 222.032,440.929 228.366,444.596 234.5,448.5C 209.5,448.5 184.5,448.5 159.5,448.5C 154.254,445.589 149.587,441.922 145.5,437.5 Z"/></g>
<g><path style="opacity:0.987" fill="#5da6ee" d="M 159.5,448.5 C 184.5,448.5 209.5,448.5 234.5,448.5C 242.352,451.597 250.018,454.93 257.5,458.5C 229.967,458.18 202.301,458.513 174.5,459.5C 168.929,456.554 163.929,452.888 159.5,448.5 Z"/></g>
<g><path style="opacity:0.987" fill="#5ea6ed" d="M 443.5,437.5 C 461.326,438.497 479.326,438.83 497.5,438.5C 492.94,446.393 487.274,453.393 480.5,459.5C 456.402,458.843 432.402,458.176 408.5,457.5C 421.247,452.629 432.914,445.963 443.5,437.5 Z"/></g>
<g><path style="opacity:0.98" fill="#5ca3f0" d="M 408.5,457.5 C 432.402,458.176 456.402,458.843 480.5,459.5C 475.44,464.892 469.774,469.559 463.5,473.5C 374.665,473.167 285.998,473.501 197.5,474.5C 189.541,469.86 181.874,464.86 174.5,459.5C 202.301,458.513 229.967,458.18 257.5,458.5C 303.409,474.643 349.742,475.81 396.5,462C 400.645,460.786 404.645,459.286 408.5,457.5 Z"/></g>
<g><path style="opacity:0.996" fill="#5ba1f2" d="M 197.5,474.5 C 285.998,473.501 374.665,473.167 463.5,473.5C 459.852,476.66 455.852,479.327 451.5,481.5C 371.665,481.167 291.998,481.501 212.5,482.5C 207.368,480.1 202.368,477.434 197.5,474.5 Z"/></g>
<g><path style="opacity:0.99" fill="#599ff5" d="M 451.5,481.5 C 431.363,494.387 409.363,502.887 385.5,507C 374.71,508.68 364.043,510.18 353.5,511.5C 337.167,511.5 320.833,511.5 304.5,511.5C 272.003,507.708 241.336,498.041 212.5,482.5C 291.998,481.501 371.665,481.167 451.5,481.5 Z"/></g>
</svg>
